{"asset":{"version":"2.0","generator":"VECTARY"},"nodes":[{"translation":[0,0.0005244465971383636,1.1102230246251566e-19],"scale":[0.001,0.001,0.001],"rotation":[-0.7071067811865475,0,0,0.7071067811865476],"name":"A_screw","mesh":0}],"materials":[{"pbrMetallicRoughness":{"baseColorFactor":[0.6320426176206414,0.6320426176206414,0.6320426176206414,1],"metallicFactor":1,"roughnessFactor":0},"name":"Sharp Shapes Shiny","emissiveFactor":[0,0,0],"alphaMode":"OPAQUE","doubleSided":false}],"meshes":[{"primitives":[{"mode":4,"attributes":{"POSITION":1,"NORMAL":2},"material":0,"indices":0}]}],"accessors":[{"bufferView":0,"byteOffset":0,"componentType":5125,"count":18006,"type":"SCALAR"},{"bufferView":1,"byteOffset":0,"componentType":5126,"count":3721,"max":[1.701032042503357,1.7399990558624268,4.576870918273926],"min":[-1.682176947593689,-1.7143880128860474,-0.5437679886817932],"type":"VEC3"},{"bufferView":2,"byteOffset":0,"componentType":5126,"count":3721,"type":"VEC3"}],"bufferViews":[{"buffer":0,"byteOffset":0,"byteLength":72024,"target":34963},{"buffer":0,"byteOffset":72024,"byteLength":44652,"target":34962},{"buffer":0,"byteOffset":116676,"byteLength":44652,"target":34962}],"scene":0,"scenes":[{"nodes":[0],"name":"Project Name"}],"extensionsUsed":["KHR_texture_transform"],"buffers":[{"byteLength":161328,"uri":"screw.bin"}]}